# Blender 3.3.1
# www.blender.org
o Cannon_Tower
v 0.000000 0.000000 -0.568762
v 0.402175 0.000000 -0.402175
v 0.568762 0.000000 0.000000
v 0.402175 0.000000 0.402175
v 0.000000 0.000000 0.568762
v -0.402175 0.000000 0.402175
v -0.568762 0.000000 0.000000
v -0.402175 0.000000 -0.402175
v 0.402175 1.000000 -0.402175
v 0.000000 1.000000 -0.568762
v 0.568762 1.000000 0.000000
v 0.402175 1.000000 0.402175
v 0.000000 1.000000 0.568762
v -0.402175 1.000000 0.402175
v -0.568762 1.000000 0.000000
v -0.402175 1.000000 -0.402175
v 0.123937 2.188159 0.123937
v 0.175273 2.188159 -0.000000
v 0.123937 2.188159 -0.123937
v -0.000000 2.188159 -0.175273
v 0.283902 1.000000 -0.283902
v 0.123937 1.351482 -0.123937
v 0.207260 1.351482 -0.207260
v 0.000000 1.000000 -0.401499
v -0.000000 1.351482 -0.293109
v -0.000000 1.351482 -0.175273
v 0.401499 1.000000 -0.000000
v 0.175273 1.351482 -0.000000
v 0.293109 1.351482 -0.000000
v 0.283902 1.000000 0.283902
v 0.123937 1.351482 0.123937
v 0.207260 1.351482 0.207260
v 0.000000 1.000000 0.401499
v 0.000000 1.351482 0.175273
v 0.000000 1.351482 0.293109
v -0.283902 1.000000 0.283902
v -0.123937 1.351482 0.123937
v -0.207260 1.351482 0.207260
v -0.000000 1.529346 0.000000
v -0.401499 1.000000 -0.000000
v -0.175273 1.351482 0.000000
v -0.293109 1.351482 0.000000
v -0.283902 1.000000 -0.283902
v -0.123937 1.351482 -0.123937
v -0.207260 1.351482 -0.207260
v 0.000000 2.188159 0.175273
v -0.123937 2.188159 0.123937
v -0.175273 2.188159 0.000000
v -0.000000 2.188159 0.000000
v -0.123937 2.188159 -0.123937
vn -0.0000 -0.0000 -1.0000
vn 0.7071 -0.0000 -0.7071
vn 1.0000 -0.0000 -0.0000
vn 0.7071 -0.0000 0.7071
vn -0.0000 -0.0000 1.0000
vn -0.7071 -0.0000 0.7071
vn -1.0000 -0.0000 -0.0000
vn -0.7071 -0.0000 -0.7071
vn -0.0000 -1.0000 -0.0000
vn -0.0000 1.0000 -0.0000
vn 0.6757 0.2947 -0.6757
vn -0.0000 0.2947 -0.9556
vn 0.9556 0.2947 -0.0000
vn 0.6757 0.2947 0.6757
vn -0.0000 0.2947 0.9556
vn -0.6757 0.2947 0.6757
vn -0.9556 0.2947 -0.0000
vn -0.6757 0.2947 -0.6757
vt 1.000000 0.500000
vt 0.000000 0.500000
vt 0.750000 0.490000
vt 0.875000 0.500000
vt 0.919706 0.419706
vt 0.750000 0.500000
vt 0.990000 0.250000
vt 0.625000 0.500000
vt 0.919706 0.080294
vt 0.500000 0.500000
vt 0.750000 0.010000
vt 0.375000 0.500000
vt 0.580294 0.080294
vt 0.250000 0.500000
vt 0.510000 0.250000
vt 0.125000 0.500000
vt 0.580294 0.419706
vt 0.875000 1.000000
vt 0.419706 0.419706
vt 1.000000 1.000000
vt 0.000000 1.000000
vt 0.250000 0.490000
vt 0.750000 1.000000
vt 0.490000 0.250000
vt 0.625000 1.000000
vt 0.419706 0.080294
vt 0.500000 1.000000
vt 0.250000 0.010000
vt 0.375000 1.000000
vt 0.080294 0.080294
vt 0.250000 1.000000
vt 0.010000 0.250000
vt 0.125000 1.000000
vt 0.080294 0.419706
vt 0.305307 0.194693
vt 0.328216 0.250000
vt 0.305307 0.305307
vt 0.250000 0.328216
vt 0.394931 0.394931
vt 0.305307 0.305307
vt 0.364106 0.364106
vt 0.250000 0.454963
vt 0.250000 0.411371
vt 0.250000 0.328216
vt 0.454963 0.250000
vt 0.328216 0.250000
vt 0.411371 0.250000
vt 0.394931 0.105069
vt 0.305307 0.194693
vt 0.364106 0.135894
vt 0.250000 0.045037
vt 0.250000 0.171784
vt 0.250000 0.088629
vt 0.105069 0.105069
vt 0.194693 0.194693
vt 0.135894 0.135894
vt 0.045037 0.250000
vt 0.171784 0.250000
vt 0.088629 0.250000
vt 0.105069 0.394931
vt 0.194693 0.305307
vt 0.135894 0.364106
vt 0.250000 0.171784
vt 0.194693 0.194693
vt 0.171784 0.250000
vt 0.250000 0.250000
vt 0.194693 0.305307
s 1
f 1/1/1 10/20/1 9/18/2 2/4/2
f 2/4/2 9/18/2 11/23/3 3/6/3
f 3/6/3 11/23/3 12/25/4 4/8/4
f 4/8/4 12/25/4 13/27/5 5/10/5
f 5/10/5 13/27/5 14/29/6 6/12/6
f 6/12/6 14/29/6 15/31/7 7/14/7
f 7/14/7 15/31/7 16/33/8 8/16/8
f 8/16/8 16/33/8 10/21/1 1/2/1
f 1/3/9 2/5/9 3/7/9 4/9/9 5/11/9 6/13/9 7/15/9 8/17/9
f 16/34/10 43/60/10 24/42/10 10/22/10
f 12/26/10 30/48/10 33/51/10 13/28/10
f 13/28/10 33/51/10 36/54/10 14/30/10
f 14/30/10 36/54/10 40/57/10 15/32/10
f 15/32/10 40/57/10 43/60/10 16/34/10
f 19/37/10 20/38/10 49/66/10
f 11/24/10 27/45/10 30/48/10 12/26/10
f 9/19/10 21/39/10 27/45/10 11/24/10
f 21/39/11 24/42/12 25/43/12 23/41/11
f 23/41/10 25/43/10 26/44/10 22/40/10
f 22/40/2 26/44/1 20/38/1 19/37/2
f 27/45/13 21/39/11 23/41/11 29/47/13
f 29/47/10 23/41/10 22/40/10 28/46/10
f 34/52/5 31/49/4 17/35/4 46/63/5
f 30/48/14 27/45/13 29/47/13 32/50/14
f 32/50/10 29/47/10 28/46/10 31/49/10
f 37/55/6 34/52/5 46/63/5 47/64/6
f 33/51/15 30/48/14 32/50/14 35/53/15
f 35/53/10 32/50/10 31/49/10 34/52/10
f 41/58/7 37/55/6 47/64/6 48/65/7
f 36/54/16 33/51/15 35/53/15 38/56/16
f 38/56/10 35/53/10 34/52/10 37/55/10
f 44/61/8 41/58/7 48/65/7 50/67/8
f 40/57/17 36/54/16 38/56/16 42/59/17
f 42/59/10 38/56/10 37/55/10 41/58/10
f 43/60/18 40/57/17 42/59/17 45/62/18
f 45/62/10 42/59/10 41/58/10 44/61/10
f 26/44/1 44/61/8 50/67/8 20/38/1
f 24/42/12 43/60/18 45/62/18 25/43/12
f 25/43/10 45/62/10 44/61/10 26/44/10
f 10/22/10 24/42/10 21/39/10 9/19/10
f 18/36/10 19/37/10 49/66/10
f 17/35/10 18/36/10 49/66/10
f 46/63/10 17/35/10 49/66/10
f 47/64/10 46/63/10 49/66/10
f 48/65/10 47/64/10 49/66/10
f 50/67/10 48/65/10 49/66/10
f 20/38/10 50/67/10 49/66/10
f 31/49/4 28/46/3 18/36/3 17/35/4
f 28/46/3 22/40/2 19/37/2 18/36/3
l 49 39
o Gun
v -0.178960 2.163346 -0.756656
v -0.364792 2.047920 0.417421
v -0.364792 2.501089 0.417421
v -0.178960 2.385663 -0.756656
v 0.178960 2.385663 -0.756656
v 0.178960 2.163346 -0.756656
v 0.364792 2.047920 0.417421
v 0.364792 2.501089 0.417421
v -0.130645 2.377947 1.018710
v -0.201648 2.319307 1.018710
v 0.201648 2.319307 1.018710
v 0.130645 2.377947 1.018710
v 0.130645 2.171061 1.018710
v 0.201648 2.229702 1.018710
v -0.201648 2.229702 1.018710
v -0.130645 2.171061 1.018710
v 0.130645 2.377947 -0.031254
v 0.201648 2.319307 -0.031254
v 0.201648 2.229702 -0.031254
v 0.130645 2.171061 -0.031254
v -0.201648 2.319307 -0.031254
v -0.130645 2.377947 -0.031254
v -0.130645 2.171061 -0.031254
v -0.201648 2.229702 -0.031254
v 0.024827 2.214183 0.828599
v 0.060209 2.249406 0.828599
v -0.060322 2.249677 0.828599
v -0.025099 2.214295 0.828599
v -0.024827 2.334826 0.828599
v -0.060209 2.299603 0.828599
v 0.060322 2.299331 0.828599
v 0.025099 2.334713 0.828599
v -0.025099 2.214294 2.040308
v -0.060322 2.249676 2.040308
v -0.060209 2.299602 2.040308
v -0.024827 2.334825 2.040308
v 0.025099 2.334713 2.040308
v 0.060322 2.299330 2.040308
v 0.060209 2.249405 2.040308
v 0.024827 2.214182 2.040308
vn -0.0000 -0.0000 -1.0000
vn -0.0000 -0.9952 -0.0978
vn -0.0000 0.9952 -0.0978
vn -0.9877 -0.0000 -0.1563
vn 0.9877 -0.0000 -0.1563
vn -0.0000 -0.0000 1.0000
vn -0.3384 -0.9410 -0.0000
vn 0.3384 -0.9410 -0.0000
vn 0.9047 -0.4262 -0.0000
vn 0.9047 0.4262 -0.0000
vn -0.9047 0.4262 -0.0000
vn -0.9047 -0.4262 -0.0000
vn 0.3384 0.9410 -0.0000
vn -0.3384 0.9410 -0.0000
vn -0.3848 -0.9230 -0.0000
vn 0.3806 -0.9247 -0.0000
vn 0.9247 0.3806 -0.0000
vn 0.3848 0.9230 -0.0000
vn -0.9247 -0.3806 -0.0000
vn -0.9230 0.3848 -0.0000
vn 0.9230 -0.3848 -0.0000
vn -0.3806 0.9247 -0.0000
vt 0.375000 0.250000
vt 0.125000 0.500000
vt 0.000000 0.000000
vt 0.125000 0.750000
vt 0.000000 0.000000
vt 0.875000 0.750000
vt 0.000000 0.000000
vt 0.625000 0.250000
vt 0.875000 0.500000
vt 0.000000 0.000000
vt 0.625000 0.500000
vt 0.000000 0.000000
vt 0.375000 0.500000
vt 0.000000 0.000000
vt 0.375000 0.750000
vt 0.000000 0.000000
vt 0.625000 0.750000
vt 0.000000 0.000000
vt 0.000000 0.000000
vt 0.000000 0.000000
vt 0.000000 0.000000
vt 0.000000 0.000000
vt 0.000000 0.000000
vt 0.000000 0.000000
vt 0.000000 0.000000
vt 0.000000 0.000000
vt 0.000000 0.000000
vt 0.000000 0.000000
vt 0.000000 0.000000
vt 0.000000 0.000000
vt 0.000000 0.000000
vt 0.000000 0.000000
vt 0.000000 0.000000
vt 0.000000 0.000000
vt 0.000000 0.000000
vt 0.000000 0.000000
vt 0.000000 0.000000
vt 0.000000 0.000000
vt 0.000000 0.000000
vt 0.000000 0.000000
vt 0.000000 0.000000
vt 0.000000 0.000000
vt 0.000000 0.000000
vt 0.000000 0.000000
vt 0.000000 0.000000
vt 0.000000 0.000000
vt 0.000000 0.000000
vt 0.000000 0.000000
vt 0.000000 0.000000
vt 0.000000 0.000000
s 1
f 51/68/19 54/75/19 55/78/19 56/80/19
f 51/69/20 56/80/20 57/82/20 52/71/20
f 55/78/21 54/76/21 53/73/21 58/84/21
f 52/72/22 53/74/22 54/77/22 51/70/22
f 56/81/23 55/79/23 58/85/23 57/83/23
f 57/83/24 58/85/24 53/74/24 52/72/24
f 73/100/25 70/97/26 63/90/26 66/93/25
f 69/96/27 68/95/28 61/88/28 64/91/27
f 71/98/29 74/101/30 65/92/30 60/87/29
f 63/90/24 64/91/24 61/88/24 62/89/24 59/86/24 60/87/24 65/92/24 66/93/24
f 69/96/19 70/97/19 73/100/19 74/101/19 71/98/19 72/99/19 67/94/19 68/95/19
f 67/94/31 62/89/31 61/88/28 68/95/28
f 63/90/26 70/97/26 69/96/27 64/91/27
f 65/92/30 74/101/30 73/100/25 66/93/25
f 71/98/29 60/87/29 59/86/32 72/99/32
f 67/94/31 72/99/32 59/86/32 62/89/31
f 79/106/19 82/109/19 81/108/19 76/103/19 75/102/19 78/105/19 77/104/19 80/107/19
f 86/113/24 85/112/24 84/111/24 83/110/24 90/117/24 89/116/24 88/115/24 87/114/24
f 78/105/33 75/102/34 90/117/34 83/110/33
f 81/108/35 82/109/36 87/114/36 88/115/35
f 77/104/37 78/105/33 83/110/33 84/111/37
f 80/107/38 77/104/37 84/111/37 85/112/38
f 76/103/39 81/108/35 88/115/35 89/116/39
f 75/102/34 76/103/39 89/116/39 90/117/34
f 79/106/40 80/107/38 85/112/38 86/113/40
f 82/109/36 79/106/40 86/113/40 87/114/36
